<svg data-v-2f0b87cb="" version="1.0" 
    xmlns="http://www.w3.org/2000/svg" 
    xmlns:xlink="http://www.w3.org/1999/xlink" width="100%" height="100%" viewBox="0 0 340.000000 250.000000" preserveAspectRatio="xMidYMid meet" color-interpolation-filters="sRGB" class="el-tooltip" style="margin: auto;">
    <rect data-v-2f0b87cb="" x="0" y="0" width="100%" height="100%" fill="#fff" fill-opacity="1"></rect>
    <rect data-v-2f0b87cb="" x="0" y="0" width="100%" height="100%" fill="url(#watermark)" fill-opacity="1" class="watermarklayer"></rect>
    <g data-v-2f0b87cb="" class="iconmbgsvg" transform="translate(113.75,79.1380500793457)">
        <g fill="#000000" hollow-target="textRect">
            <g mask="url(#197cdbdec734a21369b5ad64932a02de)">
                <rect fill="#000000" fill-opacity="0" stroke-width="2" x="0" y="0" width="112.5" height="91.72390065535147" class="image-rect"></rect>
                <svg x="0" y="0" width="112.5" height="91.72390065535147" filtersec="colorsb918736063" class="image-svg-svg">
                    <svg version="1.1" id="图层_1" 
                        xmlns="http://www.w3.org/2000/svg" 
                        xmlns:xlink="http://www.w3.org/1999/xlink" x="0px" y="0px" viewBox="1.6299999952316284 0.9700000286102295 103.37000274658203 84.27999877929688" enable-background="new 0 0 106 86" xml:space="preserve">
                        <g>
                            <polygon fill="#000000" points="81.11,85.25 39.73,85.25 63.62,39.01 105,39.01 	"></polygon>
                            <polygon fill="#000000" points="104.85,33.41 63.47,33.41 30.37,0.97 71.75,0.97 	"></polygon>
                            <polygon fill="#000000" points="35.38,83.29 1.63,49.63 25.52,3.39 59.27,37.05 	"></polygon>
                        </g>
                    </svg>
                </svg>                <!----></g>
            <g transform="translate(30.25,17.701717376708984)">
                <g class="tp-name" transform="translate(0,0)">
                    <g>
                        <path d="M21.70-34.59L15.04-20.63L22.56-4.51Q23.20-3.22 23.96-2.69Q24.71-2.15 25.57-2.15L25.57-2.15L26.21-2.15L26.21-0.86L16.97-0.86L16.97-2.15L17.83-2.15Q18.91-2.15 19.23-2.69Q19.55-3.22 19.12-4.08L19.12-4.08L13.32-16.76L8.38-6.45Q7.95-5.37 7.63-4.62Q7.30-3.87 7.30-3.65L7.30-3.65Q7.30-2.79 7.84-2.47Q8.38-2.15 9.24-2.15L9.24-2.15L9.67-2.15L9.67-0.86L1.50-0.86L1.50-2.15L2.36-2.15Q3.44-2.15 4.30-2.79Q5.16-3.44 5.59-4.30L5.59-4.30L12.46-18.91L5.16-34.80Q4.94-35.45 4.40-35.88Q3.87-36.31 3.01-36.31L3.01-36.31L2.15-36.31L2.15-37.60L10.96-37.60L10.96-36.31L10.31-36.31Q9.02-36.31 8.81-35.66Q8.59-35.02 9.02-33.73L9.02-33.73L14.18-22.34L19.34-33.30Q19.98-34.80 19.77-35.56Q19.55-36.31 18.26-36.31L18.26-36.31L16.97-36.31L16.97-37.60L25.35-37.60L25.35-36.31L24.06-36.31Q23.63-36.31 22.99-35.88Q22.34-35.45 21.70-34.59L21.70-34.59ZM41.89-17.83L47.91-33.73Q48.13-35.02 47.59-35.66Q47.05-36.31 45.55-36.31L45.55-36.31L45.12-36.31L45.12-37.60L53.50-37.60L53.50-36.31L52.85-36.31Q51.78-36.31 50.92-35.56Q50.06-34.80 49.41-33.30L49.41-33.30L42.75-16.33L42.75-3.87Q42.75-3.01 43.29-2.58Q43.83-2.15 44.69-2.15L44.69-2.15L46.62-2.15L46.62-0.86L35.45-0.86L35.45-2.15L37.38-2.15Q38.46-2.15 38.89-2.58Q39.32-3.01 39.32-3.87L39.32-3.87L39.32-15.04L32.01-33.95Q31.58-35.02 30.94-35.66Q30.29-36.31 29.22-36.31L29.22-36.31L28.79-36.31L28.79-37.60L38.24-37.60L38.24-36.31L36.95-36.31Q35.66-36.31 35.45-35.66Q35.23-35.02 35.66-33.73L35.66-33.73L41.46-17.83L41.89-17.83Z" transform="translate(-1.50390625, 37.59765625)"></path>
                    </g>                    <!---->                    <!---->                    <!---->                    <!---->                    <!---->                    <!---->
                    <g fill="#0f0f0f" transform="translate(55,0)"></g>
                </g>
                <g class="tp-slogan" fill="#000000" transform="translate(1.25,43.73999786376953)">                    <!---->                    <!---->                    <!---->
                    <g>
                        <path d="M3.42-4.31L2.06-3.05L2.06 0L0.89 0L0.89-8.58L2.06-8.58L2.06-4.41L6.23-8.58L7.88-8.58L4.27-5.11L7.97 0L6.42 0L3.42-4.31ZM8.16-1.03L13.32-1.03L13.32 0L6.99 0L6.99-8.58L13.22-8.58L13.22-7.59L8.16-7.59L8.16-4.92L12.85-4.92L12.85-3.89L8.16-3.89L8.16-1.03ZM14.12-1.03L19.28-1.03L19.28 0L12.95 0L12.95-8.58L19.18-8.58L19.18-7.59L14.12-7.59L14.12-4.92L18.81-4.92L18.81-3.89L14.12-3.89L14.12-1.03ZM22.42-7.64L20.08-7.64L20.08-4.64L22.38-4.64Q24.16-4.64 24.16-6.19L24.16-6.19Q24.16-7.59 22.42-7.64L22.42-7.64ZM22.80-3.61L20.08-3.61L20.08 0L18.91 0L18.91-8.58L22.80-8.58Q25.23-8.48 25.33-6.19L25.33-6.19Q25.19-3.70 22.80-3.61L22.80-3.61ZM31.71 0L30.87-2.48L27.40-2.48L26.51 0L25.34 0L28.57-8.58L29.89-8.58L32.98 0L31.71 0ZM29.14-7.31L27.78-3.52L30.45-3.52L29.18-7.31L29.14-7.31ZM32.00-8.58L33.17-8.58L33.17-1.03L37.53-1.03L37.53 0L32.00 0L32.00-8.58ZM36.83-8.58L38.01-8.58L38.01 0L36.83 0L36.83-8.58ZM38.62-8.58L41.06-1.27L43.54-8.58L44.85-8.58L41.71 0L40.45 0L37.31-8.58L38.62-8.58ZM45.23-1.03L50.39-1.03L50.39 0L44.06 0L44.06-8.58L50.30-8.58L50.30-7.59L45.23-7.59L45.23-4.92L49.92-4.92L49.92-3.89L45.23-3.89L45.23-1.03Z" transform="translate(-0.890625, 8.578125)"></path>
                    </g>
                </g>
            </g>
        </g>
    </g>
    <mask id="197cdbdec734a21369b5ad64932a02de">
        <g fill="white">
            <rect fill-opacity="0" stroke-width="2" x="0" y="0" width="112.5" height="91.72390065535147" class="image-rect"></rect>
            <svg x="0" y="0" width="112.5" height="91.72390065535147" filtersec="colorsb918736063" class="image-svg-svg">
                <svg version="1.1" id="图层_1" 
                    xmlns="http://www.w3.org/2000/svg" 
                    xmlns:xlink="http://www.w3.org/1999/xlink" x="0px" y="0px" viewBox="1.6299999952316284 0.9700000286102295 103.37000274658203 84.27999877929688" enable-background="new 0 0 106 86" xml:space="preserve">
                    <g>
                        <polygon points="81.11,85.25 39.73,85.25 63.62,39.01 105,39.01 	"></polygon>
                        <polygon points="104.85,33.41 63.47,33.41 30.37,0.97 71.75,0.97 	"></polygon>
                        <polygon points="35.38,83.29 1.63,49.63 25.52,3.39 59.27,37.05 	"></polygon>
                    </g>
                </svg>
            </svg>
        </g>
        <rect fill="#000" fill-opacity="1" x="26.75" y="14.201717376708984" width="59" height="59.320465087890625"></rect>
        <g transform="translate(30.25,17.701717376708984)" fill="black">
            <g class="tp-name" transform="translate(0,0)">
                <g>
                    <path d="M21.70-34.59L15.04-20.63L22.56-4.51Q23.20-3.22 23.96-2.69Q24.71-2.15 25.57-2.15L25.57-2.15L26.21-2.15L26.21-0.86L16.97-0.86L16.97-2.15L17.83-2.15Q18.91-2.15 19.23-2.69Q19.55-3.22 19.12-4.08L19.12-4.08L13.32-16.76L8.38-6.45Q7.95-5.37 7.63-4.62Q7.30-3.87 7.30-3.65L7.30-3.65Q7.30-2.79 7.84-2.47Q8.38-2.15 9.24-2.15L9.24-2.15L9.67-2.15L9.67-0.86L1.50-0.86L1.50-2.15L2.36-2.15Q3.44-2.15 4.30-2.79Q5.16-3.44 5.59-4.30L5.59-4.30L12.46-18.91L5.16-34.80Q4.94-35.45 4.40-35.88Q3.87-36.31 3.01-36.31L3.01-36.31L2.15-36.31L2.15-37.60L10.96-37.60L10.96-36.31L10.31-36.31Q9.02-36.31 8.81-35.66Q8.59-35.02 9.02-33.73L9.02-33.73L14.18-22.34L19.34-33.30Q19.98-34.80 19.77-35.56Q19.55-36.31 18.26-36.31L18.26-36.31L16.97-36.31L16.97-37.60L25.35-37.60L25.35-36.31L24.06-36.31Q23.63-36.31 22.99-35.88Q22.34-35.45 21.70-34.59L21.70-34.59ZM41.89-17.83L47.91-33.73Q48.13-35.02 47.59-35.66Q47.05-36.31 45.55-36.31L45.55-36.31L45.12-36.31L45.12-37.60L53.50-37.60L53.50-36.31L52.85-36.31Q51.78-36.31 50.92-35.56Q50.06-34.80 49.41-33.30L49.41-33.30L42.75-16.33L42.75-3.87Q42.75-3.01 43.29-2.58Q43.83-2.15 44.69-2.15L44.69-2.15L46.62-2.15L46.62-0.86L35.45-0.86L35.45-2.15L37.38-2.15Q38.46-2.15 38.89-2.58Q39.32-3.01 39.32-3.87L39.32-3.87L39.32-15.04L32.01-33.95Q31.58-35.02 30.94-35.66Q30.29-36.31 29.22-36.31L29.22-36.31L28.79-36.31L28.79-37.60L38.24-37.60L38.24-36.31L36.95-36.31Q35.66-36.31 35.45-35.66Q35.23-35.02 35.66-33.73L35.66-33.73L41.46-17.83L41.89-17.83Z" transform="translate(-1.50390625, 37.59765625)"></path>
                </g>
                <g transform="translate(55,0)"></g>
            </g>
            <g class="tp-slogan" transform="translate(1.25,43.73999786376953)" fill="white">
                <g>
                    <path d="M3.42-4.31L2.06-3.05L2.06 0L0.89 0L0.89-8.58L2.06-8.58L2.06-4.41L6.23-8.58L7.88-8.58L4.27-5.11L7.97 0L6.42 0L3.42-4.31ZM8.16-1.03L13.32-1.03L13.32 0L6.99 0L6.99-8.58L13.22-8.58L13.22-7.59L8.16-7.59L8.16-4.92L12.85-4.92L12.85-3.89L8.16-3.89L8.16-1.03ZM14.12-1.03L19.28-1.03L19.28 0L12.95 0L12.95-8.58L19.18-8.58L19.18-7.59L14.12-7.59L14.12-4.92L18.81-4.92L18.81-3.89L14.12-3.89L14.12-1.03ZM22.42-7.64L20.08-7.64L20.08-4.64L22.38-4.64Q24.16-4.64 24.16-6.19L24.16-6.19Q24.16-7.59 22.42-7.64L22.42-7.64ZM22.80-3.61L20.08-3.61L20.08 0L18.91 0L18.91-8.58L22.80-8.58Q25.23-8.48 25.33-6.19L25.33-6.19Q25.19-3.70 22.80-3.61L22.80-3.61ZM31.71 0L30.87-2.48L27.40-2.48L26.51 0L25.34 0L28.57-8.58L29.89-8.58L32.98 0L31.71 0ZM29.14-7.31L27.78-3.52L30.45-3.52L29.18-7.31L29.14-7.31ZM32.00-8.58L33.17-8.58L33.17-1.03L37.53-1.03L37.53 0L32.00 0L32.00-8.58ZM36.83-8.58L38.01-8.58L38.01 0L36.83 0L36.83-8.58ZM38.62-8.58L41.06-1.27L43.54-8.58L44.85-8.58L41.71 0L40.45 0L37.31-8.58L38.62-8.58ZM45.23-1.03L50.39-1.03L50.39 0L44.06 0L44.06-8.58L50.30-8.58L50.30-7.59L45.23-7.59L45.23-4.92L49.92-4.92L49.92-3.89L45.23-3.89L45.23-1.03Z" transform="translate(-0.890625, 8.578125)"></path>
                </g>
            </g>
        </g>
    </mask>
</svg>