<svg data-v-2f0b87cb="" version="1.0" xmlns="http://www.w3.org/2000/svg" xmlns:xlink="http://www.w3.org/1999/xlink" width="100%" height="100%" viewBox="0 0 340.000000 250.000000" preserveAspectRatio="xMidYMid meet" color-interpolation-filters="sRGB" class="el-tooltip" style="margin: auto;"><rect data-v-2f0b87cb="" x="0" y="0" width="100%" height="100%" fill="#fff" fill-opacity="1"></rect> <rect data-v-2f0b87cb="" x="0" y="0" width="100%" height="100%" fill="url(#watermark)" fill-opacity="1" class="watermarklayer"></rect> <g data-v-2f0b87cb="" fill="#000000" class="icon-text-wrapper icon-svg-group iconsvg" transform="translate(106.1195297241211,99.57609176635742)"><g class="iconsvg-imagesvg" transform="translate(0,0.9642009735107422)"><rect fill="#000000" fill-opacity="0" stroke-width="2" x="0" y="0" width="60" height="48.91941368285411" class="image-rect"></rect> <svg x="0" y="0" width="60" height="48.91941368285411" filtersec="colorsb2300035201" class="image-svg-svg"><svg version="1.1" id="图层_1" xmlns="http://www.w3.org/2000/svg" xmlns:xlink="http://www.w3.org/1999/xlink" x="0px" y="0px" viewBox="1.6299999952316284 0.9700000286102295 103.37000274658203 84.27999877929688" enable-background="new 0 0 106 86" xml:space="preserve">
<g>
	<polygon fill="#231815" points="81.11,85.25 39.73,85.25 63.62,39.01 105,39.01 	"></polygon>
	<polygon fill="#231815" points="104.85,33.41 63.47,33.41 30.37,0.97 71.75,0.97 	"></polygon>
	<polygon fill="#000000" points="35.38,83.29 1.63,49.63 25.52,3.39 59.27,37.05 	"></polygon>
</g>
</svg></svg> <!----></g> <g transform="translate(67,0)"><g class="tp-name iconsvg-namesvg" transform="translate(5.584999084472656,0)"><g><path d="M23.71-31.50L25.38-31.50L25.38-15.25L16.70-15.25L16.70-0.49L26.10-0.49L26.10 1.17L15.03 1.17L15.03-15.25L6.17-15.25L6.17 1.75L4.50 1.75L4.50-16.88L15.03-16.88L15.03-22.23L4.59-22.23L4.59-31.50L6.25-31.50L6.25-23.85L16.70-23.85L16.70-16.88L23.71-16.88L23.71-31.50ZM52.38-31.77L54.09-31.77L54.09-17.14L43.70-17.14L43.70 2.07L41.94 2.07L41.94-18.77L52.38-18.77L52.38-31.77ZM35.41-17.86L33.80-17.86L33.80-31.72L35.41-31.72L35.41-17.86Z" transform="translate(-4.5, 31.77)"></path></g> <!----> <!----> <!----> <!----> <!----> <!----> <g fill="#e50012" transform="translate(52.59000015258789,0)"></g></g> <g class="tp-slogan iconsvg-slogansvg" fill="#231815" transform="translate(0,40.84000015258789)"><!----> <!----> <!----> <g><path d="M3.99-5.03L2.41-3.55L2.41 0L1.04 0L1.04-10.01L2.41-10.01L2.41-5.14L7.27-10.01L9.19-10.01L4.98-5.96L9.30 0L7.49 0L3.99-5.03ZM9.86-1.20L15.87-1.20L15.87 0L8.49 0L8.49-10.01L15.76-10.01L15.76-8.86L9.86-8.86L9.86-5.74L15.33-5.74L15.33-4.54L9.86-4.54L9.86-1.20ZM17.14-1.20L23.16-1.20L23.16 0L15.78 0L15.78-10.01L23.05-10.01L23.05-8.86L17.14-8.86L17.14-5.74L22.61-5.74L22.61-4.54L17.14-4.54L17.14-1.20ZM27.16-8.91L24.43-8.91L24.43-5.41L27.11-5.41Q29.19-5.41 29.19-7.22L29.19-7.22Q29.19-8.86 27.16-8.91L27.16-8.91ZM27.60-4.21L24.43-4.21L24.43 0L23.06 0L23.06-10.01L27.60-10.01Q30.45-9.90 30.55-7.22L30.55-7.22Q30.39-4.32 27.60-4.21L27.60-4.21ZM38.67 0L37.69-2.90L33.64-2.90L32.60 0L31.24 0L35.01-10.01L36.54-10.01L40.15 0L38.67 0ZM35.67-8.53L34.08-4.10L37.20-4.10L35.72-8.53L35.67-8.53ZM39.34-10.01L40.71-10.01L40.71-1.20L45.80-1.20L45.80 0L39.34 0L39.34-10.01ZM45.32-10.01L46.68-10.01L46.68 0L45.32 0L45.32-10.01ZM47.74-10.01L50.58-1.48L53.48-10.01L55.01-10.01L51.35 0L49.87 0L46.21-10.01L47.74-10.01ZM55.79-1.20L61.80-1.20L61.80 0L54.42 0L54.42-10.01L61.70-10.01L61.70-8.86L55.79-8.86L55.79-5.74L61.26-5.74L61.26-4.54L55.79-4.54L55.79-1.20Z" transform="translate(-1.0390625, 10.0078125)"></path></g></g></g></g></svg>